<svg xmlns="http://www.w3.org/2000/svg" width="22" height="20" viewBox="0 0 22 20">
  <g id="svgexport-15_61_" data-name="svgexport-15 (61)" transform="translate(-2.978 -4)">
    <path id="_33_Right" data-name="33 Right" d="M24.637,14.672,11.968,23.839a.862.862,0,0,1-1.024-.044.833.833,0,0,1-.241-.982L14.9,14,10.7,5.187a.833.833,0,0,1,.24-.984.861.861,0,0,1,1.025-.043l12.67,9.167a.835.835,0,0,1,0,1.345Zm-11.6-.924L8.976,4.5A.845.845,0,0,0,8.2,4H3.818a.856.856,0,0,0-.7.379.832.832,0,0,0-.077.783L6.96,14.153,3.046,22.828a.832.832,0,0,0,.069.788.856.856,0,0,0,.7.383H8.2a.845.845,0,0,0,.772-.5l4.064-9.086a.823.823,0,0,0,0-.667Z" transform="translate(0 0)" fill="#32f8bd"/>
  </g>
</svg>
