<svg xmlns="http://www.w3.org/2000/svg" xmlns:xlink="http://www.w3.org/1999/xlink" width="1920" height="298" viewBox="0 0 1920 298">
  <defs>
    <clipPath id="clip-path">
      <path id="Path_1371" data-name="Path 1371" d="M0,0H407.56L958.85,178.7l647.041,58.031L1920,0V298H0Z" transform="translate(-13772 -1319)" fill="#fff" stroke="#707070" stroke-width="1"/>
    </clipPath>
  </defs>
  <g id="Mask_Group_42" data-name="Mask Group 42" transform="translate(13772 1319)" clip-path="url(#clip-path)">
    <path id="Subtraction_4" data-name="Subtraction 4" d="M1920,1102.88H0V841.93c44.778-12.228,85.6-21.021,124.805-26.882a829.446,829.446,0,0,1,123.95-9.279c53.245,0,109.086,5.021,170.714,15.349,20.613,5.058,41.237,10.444,61.3,16.008,19.041,5.281,38.184,10.891,56.9,16.674,34.347,10.615,67.864,21.963,102.467,34.691,63.9,23.5,119.229,47.226,172.74,70.168l.014.006.018.008c37.823,16.216,73.547,31.531,109.855,45.711,19.458,7.6,37.418,14.222,54.905,20.247,19.494,6.716,38.03,12.566,56.667,17.883a965.074,965.074,0,0,0,123.968,26.81c22.654,3.372,46.2,6.061,69.974,7.993,24.756,2.011,50.691,3.278,77.084,3.764,8.927.166,17.807.249,26.394.249h.142c25.022,0,49.449-.7,72.6-2.067,22.152-1.312,43.9-3.288,64.644-5.873,19.681-2.453,39.179-5.545,57.954-9.191,17.608-3.42,35.282-7.465,52.532-12.022,16.119-4.259,31.944-8.958,48.379-14.366,14.691-4.835,29.573-10.141,45.494-16.222,29.656-11.328,57.706-23.343,87.4-36.063,48.729-20.871,99.116-42.453,159.1-61.757v179.11Zm-570.994-96.167h-.042c-11.476,0-23.219-.344-34.9-1.021-23.125-1.337-46.158-3.759-68.459-7.2-21.38-3.3-42.839-7.647-63.783-12.928-19.913-5.021-40.106-11.073-60.018-17.987-18.712-6.5-37.945-14.026-57.163-22.375-74.721-32.462-144.474-74.971-218.324-119.975-48.507-29.56-98.666-60.127-153.6-89.967-29.7-16.133-57.906-30.492-86.223-43.9-15.407-7.295-31-14.369-46.355-21.025-16.154-7-32.591-13.787-48.855-20.16-17.01-6.665-34.374-13.094-51.608-19.108-17.945-6.262-36.321-12.275-54.616-17.87-18.974-5.8-38.447-11.335-57.877-16.444-20.089-5.282-40.744-10.272-61.391-14.832-21.292-4.7-43.215-9.087-65.16-13.033-22.585-4.061-45.861-7.778-69.182-11.048-23.956-3.358-48.67-6.345-73.457-8.876C52.573,546.372,26.335,544.179,0,542.45V20.132H1920v731.74c-13.464,6.374-26.961,13.351-41.264,21.331-12.76,7.119-25.882,14.883-40.117,23.737-26.468,16.462-53.028,34.4-78.714,51.748l0,0C1644.871,926.38,1525.926,1006.713,1349.006,1006.713Z" transform="translate(-13772 -2124)" fill="#031227"/>
  </g>
</svg>
