<svg xmlns="http://www.w3.org/2000/svg" version="1.1" xmlns:xlink="http://www.w3.org/1999/xlink" width="512" height="512" x="0" y="0" viewBox="0 0 16 16" style="enable-background:new 0 0 512 512" xml:space="preserve"><g><path d="M2 15.5h12a1.502 1.502 0 0 0 1.5-1.5V2A1.502 1.502 0 0 0 14 .5H8.618a1.493 1.493 0 0 0-1.342.83l-.085.17H3A1.502 1.502 0 0 0 1.5 3v1.592A1.498 1.498 0 0 0 .5 6v8A1.502 1.502 0 0 0 2 15.5Zm1-13h3.69l-.86 1.724a.497.497 0 0 1-.448.276H2.5V3a.5.5 0 0 1 .5-.5ZM1.5 6a.5.5 0 0 1 .5-.5h3.382a1.493 1.493 0 0 0 1.342-.83L8.17 1.777a.497.497 0 0 1 .447-.276H14a.5.5 0 0 1 .5.5v12a.5.5 0 0 1-.5.5H2a.5.5 0 0 1-.5-.5Z" fill="#07C595" opacity="1" data-original="#000000"></path><path d="M7.646 12.353a.502.502 0 0 0 .708 0l2-2a.5.5 0 0 0-.707-.706L8.5 10.793V7a.5.5 0 0 0-1 0v3.793L6.354 9.647a.5.5 0 0 0-.707.706Z" fill="#07C595" opacity="1" data-original="#000000"></path></g></svg>