<svg xmlns="http://www.w3.org/2000/svg" xmlns:xlink="http://www.w3.org/1999/xlink" width="548" height="46.373" viewBox="0 0 548 46.373">
  <defs>
    <linearGradient id="linear-gradient" y1="0.684" x2="0.992" y2="0.684" gradientUnits="objectBoundingBox">
      <stop offset="0" stop-color="#3a3f73"/>
      <stop offset="1" stop-color="#179983"/>
    </linearGradient>
  </defs>
  <g id="footer-card" transform="translate(-1.3 -0.5)">
    <g id="footer-cards" transform="translate(1.3 0.5)">
      <g id="cards_1_" transform="translate(147.6)">
        <g id="Group_5_1_" transform="translate(0)">
          <g id="_138290_1_" transform="translate(150.779 0.265)">
            <path id="XMLID_7_" d="M66.683,46.678H9.71A3.957,3.957,0,0,1,6,43.233v-.265H6V4.81A3.957,3.957,0,0,1,9.445,1.1H66.683a3.957,3.957,0,0,1,3.71,3.445V4.81h0V43.5a3.716,3.716,0,0,1-3.71,3.18h0" transform="translate(-6 -1.1)" fill="#e9edf4"/>
            <path id="XMLID_6_" d="M136.583,46.778H79.61a3.957,3.957,0,0,1-3.71-3.445v-.265h0V4.91A3.957,3.957,0,0,1,79.345,1.2h57.238a3.957,3.957,0,0,1,3.71,3.445V4.91h0V43.6a3.716,3.716,0,0,1-3.71,3.18h0" transform="translate(109.328 -0.935)" fill="#e9edf4"/>
            <g id="layer1" transform="translate(31.738 7.721)">
              <g id="g13" transform="translate(0 0)">
                <g id="XMLID_328_" transform="translate(0 0)">
                  <rect id="rect19" width="6.36" height="11.395" transform="translate(8.673 2.012)" fill="#ff5f00"/>
                  <path id="XMLID_330_" d="M38.13,7.753a8.511,8.511,0,0,1,2.65-5.83A7.524,7.524,0,0,0,30.445,3.248c-2.65,3.18-1.59,7.95,1.325,10.335a7.177,7.177,0,0,0,9.01,0A7.593,7.593,0,0,1,38.13,7.753Z" transform="translate(-28.927 -0.176)" fill="#eb001b"/>
                  <path id="path22" d="M45.16,7.918A7.16,7.16,0,0,1,33.5,13.482,7.492,7.492,0,0,0,34.825,3.148c-.265-.53-.795-.795-1.325-1.325A7.524,7.524,0,0,1,43.835,3.148a10.8,10.8,0,0,1,1.325,4.77Z" transform="translate(-21.382 -0.341)" fill="#f79e1b"/>
                </g>
              </g>
            </g>
          </g>
          <g id="_138289_1_" transform="translate(0 0.265)">
            <path id="XMLID_5_" d="M39.783,47.208H-17.19a3.957,3.957,0,0,1-3.71-3.445V43.5h0V4.81A3.957,3.957,0,0,1-17.455,1.1H39.783a3.957,3.957,0,0,1,3.71,3.445V4.81h0V43.763a3.571,3.571,0,0,1-3.71,3.445h0" transform="translate(20.9 -1.1)" fill="#e9edf4"/>
          </g>
          <g id="_349221_1_" transform="translate(74.197 0.265)">
            <path id="Path_1_" d="M103.348,41.968a4.075,4.075,0,0,1-3.975,3.975h-58.3A4.075,4.075,0,0,1,37.1,41.968V4.075A3.85,3.85,0,0,1,40.81.1H99.373a4.075,4.075,0,0,1,3.975,3.975h0Z" transform="translate(-37.1 -0.1)" fill="#e9edf4"/>
            <path id="Path-2_1_" d="M49.475,13.985,48.15,7.36c0-.795-1.06-1.06-1.59-1.06H40.2v.265A13.06,13.06,0,0,1,49.475,13.985Z" transform="translate(-31.985 10.129)" fill="#f79f1a"/>
            <g id="Group_1_" transform="translate(12.107 16.392)">
              <path id="Path-3_1_" d="M40.725.6H36.75L34.1,15.439h3.975Z" transform="translate(-20.586 -0.335)" fill="#059bbf"/>
              <path id="Path-4_1_" d="M36.95,15.339,43.309.5H39.07L35.095,10.57l-.53-1.59A17.461,17.461,0,0,0,29,2.885l3.71,12.19Z" transform="translate(-29 -0.5)" fill="#059bbf"/>
              <path id="Path-5_1_" d="M48.16,10.835c0-1.59-1.06-2.915-3.445-3.975C43.39,6.065,42.33,5.8,42.33,5s.795-1.06,2.385-1.06a9.526,9.526,0,0,1,2.915.53h.53l.265-3.18A8.464,8.464,0,0,0,44.715.5C40.74.5,38.09,2.62,38.09,5.27c0,2.12,2.12,3.18,3.445,3.975,1.59.795,2.12,1.06,2.12,1.855,0,1.06-1.06,1.325-2.385,1.325a8.464,8.464,0,0,1-3.71-.795l-.53-.265-.53,3.18a12.378,12.378,0,0,0,4.5.795C45.245,15.6,48.16,13.75,48.16,10.835Z" transform="translate(-16.626 -0.5)" fill="#059bbf"/>
              <path id="Shape_1_" d="M45.04,15.217H40.8L46.895,1.7a1.675,1.675,0,0,1,2.12-1.06H51.93l3.18,14.839H51.4a7.737,7.737,0,0,1-.53-2.385H45.835Zm3.975-10.6c-.265.53-.53.795-.53,1.06v.265s-1.325,3.18-1.59,4.24h3.18l-.795-4.24Z" transform="translate(-9.531 -0.378)" fill="#059bbf"/>
            </g>
          </g>
          <g id="_349230_1_" transform="translate(225.507)">
            <path id="Path-9_2_" d="M224.366,42.4a4.507,4.507,0,0,1-3.975,3.975H128.175a4.028,4.028,0,0,1-3.975-3.71V42.4h0V3.975A4.507,4.507,0,0,1,128.175,0h92.217a4.028,4.028,0,0,1,3.975,3.71Z" transform="translate(-124.2)" fill="#e9edf4"/>
          </g>
        </g>
        <g id="Group_538_1_" transform="translate(233.456 8.215)">
          <rect id="Rectangle_493_1_" width="36.569" height="12.19" transform="translate(0 17.224)" fill="#84b740"/>
          <rect id="Rectangle_494_1_" width="36.569" height="12.19" transform="translate(0 0.53)" fill="#259bd6"/>
          <path id="Path_1165_1_" d="M188.511,21.625h0a2.389,2.389,0,0,1-1.325.265c-1.06,0-2.12-.53-2.12-2.915,0-1.325.265-2.915,2.12-2.915h0a2.389,2.389,0,0,1,1.325.265h.265Zm.265-11.395h0l-.265,4.24h-.265c-.265,0-1.06-.265-1.59-.265-3.71,0-4.24,2.915-4.24,4.77a4.423,4.423,0,0,0,3.975,4.77h.795a13.3,13.3,0,0,0,3.18-.53,1.679,1.679,0,0,0,1.325-1.59V9.7a11.269,11.269,0,0,1-2.915.53" transform="translate(-115.638 5.139)" fill="#27292d"/>
          <path id="Path_1166_1_" d="M192.33,18.985h0l-.795.265a2.389,2.389,0,0,1-1.325.265c-.53,0-1.325-.265-1.325-1.06,0-.53.265-1.325,1.59-1.325h1.855ZM191.27,11.3a17.894,17.894,0,0,0-3.71.53l-1.06.265.265,2.12.795-.265a13.3,13.3,0,0,1,3.18-.53c.53,0,1.59,0,1.59,1.325v.53h-1.59c-3.18,0-4.24,1.06-4.24,3.18,0,1.855,1.325,2.915,3.71,2.915.795,0,1.59-.265,2.385-.265h.265c.795.265,1.855.265,2.65.53V15.01a3.79,3.79,0,0,0-3.71-3.71h-.53" transform="translate(-108.858 7.779)" fill="#27292d"/>
          <path id="Path_1167_1_" d="M184.595,18.985h0l-.795.265a2.389,2.389,0,0,1-1.325.265c-.53,0-1.325-.265-1.325-1.06,0-.53.265-1.325,1.59-1.325h1.855ZM183.27,11.3a17.893,17.893,0,0,0-3.71.53l-1.06.265.265,2.12.795-.265a13.3,13.3,0,0,1,3.18-.53c.53,0,1.59,0,1.59,1.325v.53h-1.59c-3.18,0-4.24,1.06-4.24,3.18,0,1.855,1.325,2.915,3.71,2.915.795,0,1.59-.265,2.385-.265h.265c.795.265,1.855.265,2.65.53V15.01a3.79,3.79,0,0,0-3.71-3.71h-.53" transform="translate(-122.057 7.779)" fill="#27292d"/>
          <path id="Path_1168_1_" d="M182.67,11.3a5.342,5.342,0,0,0-2.915.795h0a4.477,4.477,0,0,0-2.65-.795,13.3,13.3,0,0,0-3.18.53c-1.06.265-1.325.795-1.325,1.59V21.1h2.915V13.95h.265a2.389,2.389,0,0,1,1.325-.265c.53,0,1.325.53,1.325,1.06V21.1h2.915v-6.89h.265a3.361,3.361,0,0,1,1.59-.265c.53,0,1.325.53,1.325,1.06v6.36h2.915V15.01a4.854,4.854,0,0,0-4.77-3.71" transform="translate(-131.792 7.779)" fill="#27292d"/>
          <path id="Path_1169_1_" d="M199.284,12.292a4.51,4.51,0,0,1-1.855-.265h-.265V7.257h.795a3.361,3.361,0,0,1,1.59-.265h0c1.855,0,2.12,1.59,2.12,2.915-.265,1.855-1.325,2.385-2.385,2.385m0-7.95h0a4.612,4.612,0,0,0-3.975,1.325,4.912,4.912,0,0,0-.53,1.855h0v5.035h-5.035V9.377h0a4.418,4.418,0,0,0-3.71-4.77H182.06c0,.795-.265,1.325-.265,2.12h2.65c1.325,0,2.12,1.325,2.12,3.18v2.915h-5.3c0,.53-.265,1.325-.265,2.12h13.779c.53,0,1.06-.265,1.59-.265a11.269,11.269,0,0,0,2.915.53,4.423,4.423,0,0,0,4.77-3.975V9.907a4.78,4.78,0,0,0-3.445-5.565h-1.325" transform="translate(-117.932 -3.812)" fill="#27292d"/>
          <path id="Path_1170_1_" d="M189.047,15.76h0c3.18,0,4.5-1.06,4.5-3.71,0-1.855-1.325-3.18-3.71-3.18h-2.915c-.53,0-1.325-.53-1.325-1.06V7.545c0-.53.265-1.325,1.59-1.325h6.095a5.835,5.835,0,0,0,.265-2.12h-6.36c-3.18,0-4.24,1.325-4.24,3.445s1.325,3.18,3.71,3.18h2.915a1.212,1.212,0,0,1,1.325,1.06v.265c0,.53-.265,1.325-1.59,1.325H177.918a2.545,2.545,0,0,1-2.385-1.855V9.93c0-1.855.795-3.18,2.385-3.18h2.65c0-.795.265-1.325.265-2.12h-3.71a4.122,4.122,0,0,0-4.5,3.71V9.665h0V10.99a4.115,4.115,0,0,0,3.445,4.5h1.06Z" transform="translate(-131.81 -4.1)" fill="#27292d"/>
        </g>
      </g>
      <path id="XMLID_4_" d="M205.866,8.715a2.139,2.139,0,0,1-2.385,1.06,4.477,4.477,0,0,1,.795-2.65A2.783,2.783,0,0,1,206.661,5.8a5.342,5.342,0,0,1-.795,2.915m.795,1.325-3.18.795c-.795,0-1.59-.795-2.65-.795a4.135,4.135,0,0,0-3.445,2.12,8.782,8.782,0,0,0,1.06,8.48c.795,1.06,1.59,2.12,2.65,2.12s1.59-.795,2.65-.795c1.325,0,1.59.795,2.65.795s1.855-1.06,2.65-2.12a9.412,9.412,0,0,0,1.06-2.385,3.55,3.55,0,0,1-2.12-3.445,4.041,4.041,0,0,1,1.855-3.18,3.777,3.777,0,0,0-3.18-1.59m7.95-2.915V22.494H217v-5.3h3.445a4.982,4.982,0,0,0,5.035-4.77V12.16a4.982,4.982,0,0,0-4.77-5.035H214.61ZM217,9.245h2.65a2.738,2.738,0,0,1,3.18,2.385v.795a2.738,2.738,0,0,1-2.385,3.18H217ZM229.98,22.759a3.862,3.862,0,0,0,3.445-1.855h0v1.855h2.12V14.81c-.265-2.12-2.12-3.975-4.24-3.71h-.265c-2.65,0-4.5,1.325-4.5,3.445h2.12a2.063,2.063,0,0,1,2.385-1.59c1.59,0,2.385.795,2.385,1.855V15.6l-2.915.265c-2.915.265-4.24,1.325-4.24,3.18-.265,2.385,1.325,3.71,3.71,3.71Zm.53-1.855c-1.325,0-2.12-.53-2.12-1.59s.795-1.59,2.385-1.59l2.65-.265v.795a2.724,2.724,0,0,1-2.915,2.65Zm8.215,5.83c2.385,0,3.445-.795,4.5-3.71l4.24-11.925h-2.385l-2.915,9.01h0l-2.915-9.01H236.87l3.975,11.13-.265.795a2.015,2.015,0,0,1-2.12,1.59h-.795v1.855a1.593,1.593,0,0,0,1.06.265Z" transform="translate(293.906 6.92)"/>
      <path id="XMLID_2_" d="M99.718,46.778H43.01a3.957,3.957,0,0,1-3.71-3.445v-.265h0V4.91A3.957,3.957,0,0,1,42.745,1.2H99.983a3.957,3.957,0,0,1,3.71,3.445V4.91h0V43.6a4,4,0,0,1-3.975,3.18h0" transform="translate(34.102 -0.67)" fill="#e9edf4"/>
      <path id="Path_136" d="M52.9,29.39l.53-2.915H47.6L50.78,5.806c0-.265,0-.265.265-.265h7.95a6.406,6.406,0,0,1,5.3,1.59,2.29,2.29,0,0,1,.795,1.59,2.926,2.926,0,0,1,0,2.12h0v.53l.53.265.795.795.795,1.59v2.385a7.935,7.935,0,0,1-1.06,2.65,2.389,2.389,0,0,1-1.59,1.59,5.326,5.326,0,0,1-2.12,1.06,9.015,9.015,0,0,1-2.65.265h-.53c-.53,0-.795.265-1.325.53a1.377,1.377,0,0,0-.53,1.06v.265L56.61,28.86v.265h0C56.875,29.39,52.9,29.39,52.9,29.39Z" transform="translate(47.796 6.383)" fill="#253b80"/>
      <path id="Path_137" d="M63.444,7.7v.53c-1.06,5.3-4.5,7.155-9.275,7.155H51.785a1.14,1.14,0,0,0-1.06,1.06l-1.06,7.42-.265,2.12c0,.265.265.53.53.795h4.24c.53,0,.795-.265,1.06-.795v-.265l.795-5.035V20.42c0-.53.53-.795,1.06-.795h.53a7.148,7.148,0,0,0,7.95-6.095v-.265a5.138,5.138,0,0,0-.795-4.77C64.239,8.23,63.974,7.965,63.444,7.7Z" transform="translate(50.766 10.054)" fill="#179bd7"/>
      <path id="Path_138" d="M61.46,7.83c-.265,0-.795-.265-1.06-.265-.795,0-1.325-.265-2.12-.265H52.185c-.53,0-.795.265-1.06.795L49.8,16.31v.265a1.14,1.14,0,0,1,1.06-1.06h2.385A8.333,8.333,0,0,0,62.52,8.36V7.83C62.52,8.095,61.99,8.095,61.46,7.83Z" transform="translate(51.426 9.394)" fill="#222d65"/>
      <path id="Path_139" d="M55.515,11.825c0-.53.53-.795,1.06-.795h6.095a5.835,5.835,0,0,1,2.12.265c.265-.265.795,0,1.06,0s.53.265.795.265a5.539,5.539,0,0,0-1.06-4.5A9.031,9.031,0,0,0,59.755,5.2H51.8a1.14,1.14,0,0,0-1.06,1.06L47.3,27.194c0,.265.265.795.53.795H52.6L53.925,20.3C54.19,20.039,55.515,11.825,55.515,11.825Z" transform="translate(47.301 5.93)" fill="#253b80"/>
      <path id="XMLID_3_" d="M72.018,46.678H15.31a3.957,3.957,0,0,1-3.71-3.445v-.265h0V4.81A3.957,3.957,0,0,1,15.045,1.1H72.283a3.957,3.957,0,0,1,3.71,3.445V4.81h0V43.5c-.53,2.12-2.12,3.445-3.975,3.18h0" transform="translate(-11.6 -0.835)" fill="#e9edf4"/>
      <g id="Group_683" transform="translate(165.018 8.016)">
        <g id="Layer_1_1_">
          <g id="Group_682">
            <path id="Path_140" d="M101.989,14.3H75.225a1.325,1.325,0,1,0,0,2.65h26.764a1.325,1.325,0,1,0,0-2.65Z" transform="translate(-73.83 12.928)" fill="#081131"/>
            <path id="Path_141" d="M75.825,21.314a1.325,1.325,0,0,0,0,2.65H99.409a1.325,1.325,0,0,0,0-2.65h-.265V9.39h.265a.7.7,0,0,0,.795-.795.7.7,0,0,0-.795-.795H75.825a.7.7,0,0,0-.795.795.7.7,0,0,0,.795.795h.265v12.19ZM96.494,9.39v12.19H92.519V9.39Zm-6.89,0v12.19H85.63V9.39ZM79,9.39H82.98v12.19H79Z" transform="translate(-72.84 2.203)" fill="#081131"/>
            <path id="Path_142" d="M75.269,12.968h26.764a1.212,1.212,0,0,0,1.325-1.06v-.265a1.457,1.457,0,0,0-.795-1.325L89.313,4.224a.806.806,0,0,0-1.06,0L74.739,10.319c-.53.265-1.06,1.06-.795,1.59C73.944,12.438,74.739,12.968,75.269,12.968Z" transform="translate(-73.873 -4.025)" fill="#081131"/>
          </g>
        </g>
      </g>
    </g>
    <g id="Layer_2_1_" transform="translate(6.865 12.955)">
      <path id="Path_148" data-name="Path 148" d="M18.56,9.2c3.975.795,7.95,1.855,11.66,2.915l-3.975,2.65a26.724,26.724,0,0,1,2.385,4.77c-3.71-1.06-7.42-2.12-11.13-2.915Z" transform="translate(19.864 1.4)" fill="#b09242"/>
      <path id="Path_149" data-name="Path 149" d="M18.395,9.2a30.113,30.113,0,0,1,6.625,1.59c-.265,1.59-.265,2.12-.53,3.71-2.385.795-4.5,1.59-6.89,2.385Z" transform="translate(20.029 1.4)" fill="#654c1d"/>
      <path id="Path_150" data-name="Path 150" d="M15.06,9.2c-3.975.795-7.95,1.855-11.66,2.915l3.975,2.65a26.723,26.723,0,0,0-2.385,4.77c3.71-1.06,7.42-2.12,11.13-2.915Z" transform="translate(-3.4 1.4)" fill="#b09242"/>
      <path id="Path_151" data-name="Path 151" d="M11.925,9.2c-2.12.53-4.5,1.06-6.625,1.59.265,1.59.265,2.12.53,3.71,2.385.795,4.5,1.59,6.89,2.385Z" transform="translate(-0.265 1.4)" fill="#654c1d"/>
      <path id="Path_152" data-name="Path 152" d="M5.1,10.009a82.912,82.912,0,0,1,41.073,0,71.429,71.429,0,0,0-1.06,7.42,79.644,79.644,0,0,0-38.689,0A72.637,72.637,0,0,1,5.1,10.009Z" transform="translate(-0.595 -1.529)" fill="#d0b968"/>
      <circle id="Ellipse_11" data-name="Ellipse 11" cx="10.865" cy="10.865" r="10.865" transform="translate(14.044)" fill="#e7e7e7"/>
      <circle id="Ellipse_12" data-name="Ellipse 12" cx="1.06" cy="1.06" r="1.06" transform="translate(23.849 9.805)" fill="#fff"/>
      <path id="Path_153" data-name="Path 153" d="M16.76,6.9a5.835,5.835,0,0,1,2.12.265l1.59.795a3.562,3.562,0,0,1,1.59,1.855l.795,1.59a3.361,3.361,0,0,1,.265,1.59,3.361,3.361,0,0,1-.265,1.59,1.377,1.377,0,0,1-.53,1.06.925.925,0,0,1-.265.53A2.069,2.069,0,0,1,21,17.235c-.265.265-.53.53-.795.53-.265.265-.53.265-.795.53-.53.265-.795.265-1.325.53H16.76a1.593,1.593,0,0,1-1.06-.265s-.265,0,0-.265.265-.53.53-.53a.26.26,0,0,1,.265-.265H18.35c.265,0,.53-.265.795-.265.265-.265.795-.265,1.06-.53a2.069,2.069,0,0,0,1.06-1.06,3.957,3.957,0,0,0,.795-1.855,2.389,2.389,0,0,0,.265-1.325,3.361,3.361,0,0,0-.265-1.59A4.271,4.271,0,0,0,21,9.02L20.2,8.225a3.009,3.009,0,0,0-2.12-.795H17.29a1.593,1.593,0,0,0-1.06.265,5.326,5.326,0,0,0-2.12,1.06,4.753,4.753,0,0,0-1.325,1.855c-.795.795-.795,1.06-.795,1.06,0,.265-.265.795-.265,1.06v1.325a3.766,3.766,0,0,0,.53,1.59c0,.265.265.53,0,.795a.973.973,0,0,1-.795.265l-.265-.265c-.265-.53-.53-.795-.53-1.325S10.4,14.32,10.4,13.79V12.2c0-.265.265-.795.265-1.06a5.792,5.792,0,0,1,.795-1.325c.265-.53.795-.795,1.06-1.325.53-.265,1.06-.795,1.59-.795a4.006,4.006,0,0,1,2.12-.53C16.495,6.9,16.495,7.165,16.76,6.9Z" transform="translate(8.149 -2.395)" fill="#fefefe"/>
      <path id="Path_154" data-name="Path 154" d="M28.839,13.415A9.828,9.828,0,0,0,22.744,6.26a9.592,9.592,0,0,0-8.48.53,10.789,10.789,0,0,0-3.71,3.18c-.265.53-.53,1.325-.795,1.855a9.592,9.592,0,0,0,.53,8.48c.265.265.53.795.795,1.06a3.359,3.359,0,0,0,2.385,1.06,4.1,4.1,0,0,0,4.24-2.12c.265-.265.265-.53.795-.53a4.5,4.5,0,0,0,5.3-3.445V15a4.39,4.39,0,0,0-8.745.795c0,.53.265,1.06.265,1.59a.973.973,0,0,1,.265.795c0,.53-.265,1.325-1.06,1.325H14c-.265,0-.53-.265-.795-.53a4.274,4.274,0,0,1-.795-2.385,6.944,6.944,0,0,1,3.975-7.42,6.588,6.588,0,0,1,6.625.53,7.562,7.562,0,0,1,3.18,6.89,12.917,12.917,0,0,1-1.06,2.915,13.945,13.945,0,0,1-3.18,3.71l-1.06,1.06c-.265.265-1.325.795-1.59,1.06s0,.265.265.265h.795c.53,0,1.06-.265,1.59-.265a9.413,9.413,0,0,0,2.385-1.06,10.172,10.172,0,0,0,4.77-6.625c0-.53.265-.795.265-1.325C29.1,15.27,29.1,14.21,28.839,13.415Zm-9.8.53a1.71,1.71,0,0,1,1.59,1.59,1.71,1.71,0,0,1-1.59,1.59,1.71,1.71,0,0,1-1.59-1.59,1.71,1.71,0,0,1,1.59-1.59Z" transform="translate(5.874 -4.67)" fill="url(#linear-gradient)"/>
    </g>
  </g>
</svg>
