<svg xmlns="http://www.w3.org/2000/svg" width="200.026" height="147.74" viewBox="0 0 200.026 147.74">
  <g id="Layer_1-2" transform="translate(176 86.005)">
    <g id="Group_1" data-name="Group 1" transform="translate(-176 37.874)">
      <path id="Path_13" data-name="Path 13" d="M317.569,104.813a11.511,11.511,0,0,0-3.489,8.406v1.593H334.4a8.676,8.676,0,0,1-8.489,7H314.08v3.309h11.929a11.944,11.944,0,0,0,11.865-11.963V111.5H317.55a8.3,8.3,0,0,1,2.894-4.869,8.465,8.465,0,0,1,5.594-2.034h11.835V101.29h-11.9A11.626,11.626,0,0,0,317.569,104.813Z" transform="translate(-314.08 -101.29)" fill="#fff"/>
      <path id="Path_14" data-name="Path 14" d="M409.008,122.34a7.881,7.881,0,0,0-6.312,3.126,7.963,7.963,0,0,0-14.3,4.869V138.3h3.339v-7.961a4.517,4.517,0,0,1,1.35-3.3,4.65,4.65,0,0,1,7.924,3.051V138.3h3.309v-8.2a4.5,4.5,0,0,1,1.44-3.137,4.717,4.717,0,0,1,6.548.093,4.479,4.479,0,0,1,1.38,3.287V138.3h3.28v-7.961a7.942,7.942,0,0,0-7.961-7.991Z" transform="translate(-360.608 -114.468)" fill="#fff"/>
      <path id="Path_15" data-name="Path 15" d="M482.251,122.17a8.027,8.027,0,0,0,0,16.053,7.957,7.957,0,0,0,4.686-1.5v1.5h3.309V130.2a8.018,8.018,0,0,0-7.991-8.025Zm-3.306,4.723a4.65,4.65,0,1,1-1.384,3.3A4.528,4.528,0,0,1,478.946,126.893Z" transform="translate(-414.361 -114.362)" fill="#fff"/>
      <path id="Path_16" data-name="Path 16" d="M530.057,124.539a7.67,7.67,0,0,0-2.367,5.583v8.118H531v-7.995a4.724,4.724,0,0,1,4.686-4.686h.187V122.25h-.187a7.8,7.8,0,0,0-5.628,2.285Z" transform="translate(-447.811 -114.412)" fill="#fff"/>
      <path id="Path_17" data-name="Path 17" d="M562.319,101.38H559.01v15.926a7.548,7.548,0,0,0,2.352,5.568,7.821,7.821,0,0,0,5.643,2.3h.187v-3.309h-.187a4.724,4.724,0,0,1-4.686-4.686V112.5h4.872v-3.309h-4.872Z" transform="translate(-467.42 -101.346)" fill="#fff"/>
      <path id="Path_18" data-name="Path 18" d="M618.981,121.818h-2.719a8.669,8.669,0,0,1-8.653-8.653V101.33H604.3v11.963a11.97,11.97,0,0,0,11.959,11.835h6.028V101.334h-3.309v20.485Z" transform="translate(-495.774 -101.315)" fill="#07c595"/>
      <rect id="Rectangle_4" data-name="Rectangle 4" width="3.309" height="15.986" transform="translate(130.544 7.827)" fill="#07c595"/>
      <path id="Path_19" data-name="Path 19" d="M664.753,104.616a1.531,1.531,0,0,0,1.148-.494,1.62,1.62,0,0,0,.475-1.159,1.582,1.582,0,0,0-.475-1.148,1.561,1.561,0,0,0-1.148-.475,1.62,1.62,0,0,0-1.159.475,1.542,1.542,0,0,0-.494,1.148,1.653,1.653,0,0,0,1.653,1.657Z" transform="translate(-532.586 -101.321)" fill="#07c595"/>
      <path id="Path_20" data-name="Path 20" d="M685.015,124.6a8.021,8.021,0,0,0-2.285,5.736v1.559h12.2a4.4,4.4,0,0,1-1.586,2.083,4.492,4.492,0,0,1-2.715.916h-7.9v3.339h7.9a8.027,8.027,0,0,0,7.9-7.9v-1.78H686.313a4,4,0,0,1,1.357-1.933,4.776,4.776,0,0,1,2.55-1.066h8.305V122.21h-7.9a7.511,7.511,0,0,0-5.617,2.382Z" transform="translate(-544.875 -114.387)" fill="#07c595"/>
      <rect id="Rectangle_5" data-name="Rectangle 5" width="3.309" height="15.986" transform="translate(157.681 7.827)" fill="#07c595"/>
      <path id="Path_21" data-name="Path 21" d="M737.333,104.616a1.531,1.531,0,0,0,1.148-.494,1.62,1.62,0,0,0,.475-1.159,1.582,1.582,0,0,0-.475-1.148,1.561,1.561,0,0,0-1.148-.475,1.62,1.62,0,0,0-1.159.475,1.542,1.542,0,0,0-.494,1.148,1.653,1.653,0,0,0,1.653,1.657Z" transform="translate(-578.025 -101.321)" fill="#07c595"/>
      <path id="Path_22" data-name="Path 22" d="M762.005,122.3a7.675,7.675,0,0,0-5.647,2.352,8.008,8.008,0,0,0,0,11.271,7.946,7.946,0,0,0,13.574-5.628,7.783,7.783,0,0,0-2.318-5.643A7.635,7.635,0,0,0,762,122.3Zm-3.3,4.723a4.7,4.7,0,0,1,6.589,0,4.6,4.6,0,0,1,0,6.544,4.677,4.677,0,0,1-6.574,0,4.623,4.623,0,0,1-.015-6.544Z" transform="translate(-589.519 -114.443)" fill="#07c595"/>
      <path id="Path_23" data-name="Path 23" d="M819.721,124.383a8.067,8.067,0,0,0-11.364.015,7.7,7.7,0,0,0-2.367,5.643V138.1h3.339v-8.055a4.509,4.509,0,0,1,1.38-3.317,4.582,4.582,0,0,1,3.336-1.369,4.466,4.466,0,0,1,3.287,1.365,4.545,4.545,0,0,1,1.365,3.317v8.055h3.373v-8.055a7.726,7.726,0,0,0-2.352-5.662Z" transform="translate(-622.043 -114.287)" fill="#07c595"/>
    </g>
    <path id="Path_24" data-name="Path 24" d="M49.81,99.612A49.808,49.808,0,1,1,85.031,85.025h0A49.476,49.476,0,0,1,49.81,99.612ZM21.255,25.234V52.656a22.739,22.739,0,0,0,3.818,12.759C31.307,74.487,42.4,75.19,45.659,75.19c.411,0,.725,0,.871-.019h1.795A26.929,26.929,0,0,1,29.964,64.215,20.217,20.217,0,0,1,26.15,52.723V29.812h14.7a20.694,20.694,0,0,1,10.063,2.614,16.273,16.273,0,0,1,8.634,13.387v11.45l4.76,4.805V45.828a21.336,21.336,0,0,0-1.215-6.686A20.081,20.081,0,0,0,53.747,27.96a22.167,22.167,0,0,0-10.624-2.715H21.255ZM35.719,38.394V54.619A21.29,21.29,0,0,0,36.935,61.3a20.079,20.079,0,0,0,9.345,11.17,22.137,22.137,0,0,0,10.605,2.715h21.85V46.9A19.4,19.4,0,0,0,77.609,40.4a22.472,22.472,0,0,0-7.184-10.269A28.358,28.358,0,0,0,52.6,25.234h-.927l.438.157c9.132,2.973,16.79,8.268,19.5,13.5a15.785,15.785,0,0,1,2.031,8.332V70.613h-14.5a20.73,20.73,0,0,1-9.192-2.154,16.4,16.4,0,0,1-8.874-10.418,17.822,17.822,0,0,1-.6-4.6V43.2l-4.76-4.8Z" transform="translate(-126 -86)" fill="#fff"/>
  </g>
</svg>
