<svg xmlns="http://www.w3.org/2000/svg" xmlns:xlink="http://www.w3.org/1999/xlink" width="1920" height="536" viewBox="0 0 1920 536">
  <defs>
    <clipPath id="clip-path">
      <rect id="Rectangle_139" data-name="Rectangle 139" width="1920" height="536" transform="translate(-16519 -269)" fill="#fff"/>
    </clipPath>
    <clipPath id="clip-path-2">
      <path id="Path_1365" data-name="Path 1365" d="M0,0H1920V1072H0Z" fill="#051e32"/>
    </clipPath>
  </defs>
  <g id="Mask_Group_39" data-name="Mask Group 39" transform="translate(16519 269)" clip-path="url(#clip-path)">
    <g id="Group_425" data-name="Group 425">
      <g id="Path_1366" data-name="Path 1366" transform="translate(-16519 -269)" fill="#07c595">
        <path d="M 1919.5 535.5 L 0.5 535.5 L 0.5 0.7420561909675598 L 966.624755859375 392.2202453613281 L 966.6459350585938 392.2288208007812 L 966.6678466796875 392.2354736328125 L 1254.588623046875 479.2814331054688 L 1254.659301757812 479.3028564453125 L 1254.733276367188 479.3028564453125 L 1446.6806640625 479.3028564453125 L 1446.787841796875 479.3028564453125 L 1446.885498046875 479.259033203125 L 1556.250732421875 430.1561889648438 L 1556.279052734375 430.1433410644531 L 1556.305419921875 430.1273803710938 L 1919.5 209.5370178222656 L 1919.5 535.5 Z" stroke="none"/>
        <path d="M 1 1.4842529296875 L 1 535 L 1919 535 L 1919 210.4257202148438 L 1556.51220703125 430.5869140625 L 1556.455444335938 430.6123657226562 L 1446.89501953125 479.8028564453125 L 1254.58544921875 479.8028564453125 L 1254.444091796875 479.760009765625 L 966.4793090820312 392.7009582519531 L 966.4368896484375 392.6838073730469 L 1 1.4842529296875 M 0 0 L 966.8123779296875 391.7568969726562 L 1254.7333984375 478.8028564453125 L 1446.6806640625 478.8028564453125 L 1556.0458984375 429.7000122070312 L 1920 208.6483459472656 L 1920 536 L 0 536 L 0 0 Z" stroke="none" fill="#707070"/>
      </g>
      <g id="Mask_Group_38" data-name="Mask Group 38" transform="translate(-16519 -805)" clip-path="url(#clip-path-2)">
        <g id="DESIGN" transform="translate(0 486)">
          <path id="Path_1364" data-name="Path 1364" d="M1305.359,533.22C936.64,526.5,829.909,375.577,419.468,275.868,258.355,249.137,139.7,258.707,0,296.471V0C756.523,49.176,876.836,433.565,1314.061,458.587c308.562,17.676,445.3-201.452,663.32-274.377,63.328,23.016,136.741,44.406,225.282,62.325v22.149l11.847,52.783C1748.737,361.507,1731.875,541,1305.359,533.22Z" transform="translate(0 51)" fill="#07c595"/>
        </g>
      </g>
    </g>
  </g>
</svg>
