<svg xmlns="http://www.w3.org/2000/svg" version="1.1" xmlns:xlink="http://www.w3.org/1999/xlink" width="512" height="512" x="0" y="0" viewBox="0 0 682.667 682.667" style="enable-background:new 0 0 512 512" xml:space="preserve" class=""><g><defs><clipPath id="a" clipPathUnits="userSpaceOnUse"><path d="M0 512h512V0H0Z" fill="#07c595" opacity="1" data-original="#000000"></path></clipPath></defs><g clip-path="url(#a)" transform="matrix(1.33333 0 0 -1.33333 0 682.667)"><path d="M0 0c0-132.548-108.452-241-241-241S-482-132.548-482 0s108.452 241 241 241S0 132.548 0 0Z" style="stroke-linecap: butt; stroke-linejoin: miter; stroke-miterlimit: 10; stroke-dasharray: none; stroke-opacity: 1;" transform="translate(497 256)" fill="none" stroke="#07C595" stroke-width="30px" stroke-linecap="butt" stroke-linejoin="miter" stroke-miterlimit="10" stroke-dasharray="none" stroke-opacity="" data-original="#000000" class="" opacity="1"></path><path d="M0 0c0-132.548-53.726-241-120-241S-240-132.548-240 0s53.726 241 120 241S0 132.548 0 0Z" style="stroke-linecap: butt; stroke-linejoin: miter; stroke-miterlimit: 10; stroke-dasharray: none; stroke-opacity: 1;" transform="translate(376 256)" fill="none" stroke="#07C595" stroke-width="30px" stroke-linecap="butt" stroke-linejoin="miter" stroke-miterlimit="10" stroke-dasharray="none" stroke-opacity="" data-original="#000000" class="" opacity="1"></path><path d="M0 0v-482" style="stroke-linecap: butt; stroke-linejoin: miter; stroke-miterlimit: 10; stroke-dasharray: none; stroke-opacity: 1;" transform="translate(256 497)" fill="none" stroke="#07C595" stroke-width="30px" stroke-linecap="butt" stroke-linejoin="miter" stroke-miterlimit="10" stroke-dasharray="none" stroke-opacity="" data-original="#000000" class="" opacity="1"></path><path d="M0 0h482" style="stroke-linecap: butt; stroke-linejoin: miter; stroke-miterlimit: 10; stroke-dasharray: none; stroke-opacity: 1;" transform="translate(15 256)" fill="none" stroke="#07C595" stroke-width="30px" stroke-linecap="butt" stroke-linejoin="miter" stroke-miterlimit="10" stroke-dasharray="none" stroke-opacity="" data-original="#000000" class="" opacity="1"></path><path d="M0 0h-415.785" style="stroke-linecap: butt; stroke-linejoin: miter; stroke-miterlimit: 10; stroke-dasharray: none; stroke-opacity: 1;" transform="translate(463.893 136)" fill="none" stroke="#07C595" stroke-width="30px" stroke-linecap="butt" stroke-linejoin="miter" stroke-miterlimit="10" stroke-dasharray="none" stroke-opacity="" data-original="#000000" class="" opacity="1"></path><path d="M0 0h415.785" style="stroke-linecap: butt; stroke-linejoin: miter; stroke-miterlimit: 10; stroke-dasharray: none; stroke-opacity: 1;" transform="translate(48.108 377)" fill="none" stroke="#07C595" stroke-width="30px" stroke-linecap="butt" stroke-linejoin="miter" stroke-miterlimit="10" stroke-dasharray="none" stroke-opacity="" data-original="#000000" class="" opacity="1"></path></g></g></svg>