<svg xmlns="http://www.w3.org/2000/svg" width="290.482" height="90.292" viewBox="0 0 290.482 90.292">
  <g id="Layer_1-2" transform="translate(176 0.005)">
    <g id="Group_1" data-name="Group 1" transform="translate(-176 34.328)">
      <path id="Path_13" data-name="Path 13" d="M317.242,104.483a10.434,10.434,0,0,0-3.162,7.619v1.444H332.5a7.864,7.864,0,0,1-7.694,6.342H314.08v3h10.812a10.826,10.826,0,0,0,10.755-10.843v-1.5H317.225a7.525,7.525,0,0,1,2.623-4.413,7.673,7.673,0,0,1,5.07-1.844h10.727v-3H324.862A10.537,10.537,0,0,0,317.242,104.483Z" transform="translate(-314.08 -101.29)" fill="#fff"/>
      <path id="Path_14" data-name="Path 14" d="M407.079,122.34a7.143,7.143,0,0,0-5.721,2.834,7.218,7.218,0,0,0-12.958,4.413V136.8h3.027v-7.216a4.1,4.1,0,0,1,1.224-2.993,4.215,4.215,0,0,1,7.182,2.766V136.8h3v-7.436a4.075,4.075,0,0,1,1.3-2.844,4.275,4.275,0,0,1,5.935.085,4.06,4.06,0,0,1,1.251,2.979V136.8H414.3v-7.216a7.2,7.2,0,0,0-7.216-7.243Z" transform="translate(-363.21 -115.205)" fill="#fff"/>
      <path id="Path_15" data-name="Path 15" d="M481.5,122.17a7.275,7.275,0,0,0,0,14.551,7.212,7.212,0,0,0,4.247-1.363v1.363h3v-7.274a7.267,7.267,0,0,0-7.243-7.274Zm-3,4.281a4.214,4.214,0,1,1-1.254,2.993A4.1,4.1,0,0,1,478.507,126.451Z" transform="translate(-419.968 -115.093)" fill="#fff"/>
      <path id="Path_16" data-name="Path 16" d="M529.835,124.324a6.952,6.952,0,0,0-2.146,5.06v7.358h3V129.5a4.282,4.282,0,0,1,4.247-4.247h.169v-3h-.169a7.066,7.066,0,0,0-5.1,2.071Z" transform="translate(-455.289 -115.146)" fill="#fff"/>
      <path id="Path_17" data-name="Path 17" d="M562.01,101.38h-3v14.435a6.842,6.842,0,0,0,2.132,5.047,7.088,7.088,0,0,0,5.115,2.088h.169v-3h-.169a4.282,4.282,0,0,1-4.247-4.247v-4.247h4.416v-3H562.01Z" transform="translate(-475.993 -101.35)" fill="#fff"/>
      <path id="Path_18" data-name="Path 18" d="M617.607,119.9h-2.464a7.858,7.858,0,0,1-7.843-7.843V101.33h-3v10.843A10.85,10.85,0,0,0,615.139,122.9H620.6V101.333h-3V119.9Z" transform="translate(-505.933 -101.316)" fill="#32f8bd"/>
      <rect id="Rectangle_4" data-name="Rectangle 4" width="3" height="14.49" transform="translate(118.324 7.094)" fill="#32f8bd"/>
      <path id="Path_19" data-name="Path 19" d="M664.6,104.309a1.388,1.388,0,0,0,1.041-.447,1.469,1.469,0,0,0,.43-1.051,1.434,1.434,0,0,0-.43-1.041,1.415,1.415,0,0,0-1.041-.43,1.468,1.468,0,0,0-1.051.43,1.4,1.4,0,0,0-.447,1.041,1.5,1.5,0,0,0,1.5,1.5Z" transform="translate(-544.803 -101.323)" fill="#32f8bd"/>
      <path id="Path_20" data-name="Path 20" d="M684.8,124.372a7.27,7.27,0,0,0-2.071,5.2v1.413h11.06a3.991,3.991,0,0,1-1.437,1.888,4.072,4.072,0,0,1-2.461.83H682.73v3.027h7.162a7.276,7.276,0,0,0,7.158-7.162v-1.613H685.977a3.621,3.621,0,0,1,1.23-1.752,4.329,4.329,0,0,1,2.312-.966h7.528V122.21h-7.162a6.808,6.808,0,0,0-5.091,2.159Z" transform="translate(-557.78 -115.119)" fill="#32f8bd"/>
      <rect id="Rectangle_5" data-name="Rectangle 5" width="3" height="14.49" transform="translate(142.921 7.094)" fill="#32f8bd"/>
      <path id="Path_21" data-name="Path 21" d="M737.178,104.309a1.388,1.388,0,0,0,1.04-.447,1.468,1.468,0,0,0,.431-1.051,1.434,1.434,0,0,0-.431-1.041,1.415,1.415,0,0,0-1.04-.43,1.468,1.468,0,0,0-1.051.43,1.4,1.4,0,0,0-.447,1.041,1.5,1.5,0,0,0,1.5,1.5Z" transform="translate(-592.783 -101.323)" fill="#32f8bd"/>
      <path id="Path_22" data-name="Path 22" d="M761.26,122.3a6.956,6.956,0,0,0-5.118,2.132,7.259,7.259,0,0,0,0,10.216,7.2,7.2,0,0,0,12.3-5.1,7.055,7.055,0,0,0-2.1-5.115,6.921,6.921,0,0,0-5.088-2.132Zm-2.993,4.281a4.256,4.256,0,0,1,5.972,0,4.173,4.173,0,0,1,0,5.931,4.239,4.239,0,0,1-5.959,0,4.19,4.19,0,0,1-.014-5.931Z" transform="translate(-604.92 -115.179)" fill="#32f8bd"/>
      <path id="Path_23" data-name="Path 23" d="M818.436,124.165a7.312,7.312,0,0,0-10.3.014,6.982,6.982,0,0,0-2.145,5.115v7.3h3.027v-7.3a4.087,4.087,0,0,1,1.251-3.006,4.153,4.153,0,0,1,3.023-1.241,4.047,4.047,0,0,1,2.979,1.237,4.119,4.119,0,0,1,1.237,3.006v7.3h3.057v-7.3a7,7,0,0,0-2.132-5.132Z" transform="translate(-639.262 -115.014)" fill="#32f8bd"/>
    </g>
    <path id="Path_24" data-name="Path 24" d="M45.147,90.287A45.145,45.145,0,1,1,77.072,77.065h0A44.845,44.845,0,0,1,45.147,90.287ZM19.265,22.872V47.726a20.61,20.61,0,0,0,3.461,11.565c5.65,8.223,15.7,8.86,18.659,8.86.373,0,.658,0,.79-.017H43.8A24.408,24.408,0,0,1,27.159,58.2,18.325,18.325,0,0,1,23.7,47.787V27.02h13.32a18.757,18.757,0,0,1,9.121,2.369A14.75,14.75,0,0,1,53.97,41.524V51.9l4.315,4.355V41.537a19.339,19.339,0,0,0-1.1-6.06,18.2,18.2,0,0,0-8.467-10.134,20.092,20.092,0,0,0-9.629-2.461H19.265ZM32.376,34.8V49.506a19.3,19.3,0,0,0,1.1,6.053,18.2,18.2,0,0,0,8.47,10.124,20.065,20.065,0,0,0,9.612,2.461h19.8V42.513a17.579,17.579,0,0,0-1.02-5.9,20.368,20.368,0,0,0-6.511-9.307,25.7,25.7,0,0,0-16.157-4.437h-.841l.4.142c8.277,2.695,15.218,7.494,17.679,12.232a14.307,14.307,0,0,1,1.84,7.552V64H53.607a18.79,18.79,0,0,1-8.331-1.952,14.869,14.869,0,0,1-8.043-9.443,16.154,16.154,0,0,1-.546-4.166V39.155l-4.315-4.349Z" transform="translate(24.187)" fill="#fff"/>
  </g>
</svg>
