<svg xmlns="http://www.w3.org/2000/svg" version="1.1" xmlns:xlink="http://www.w3.org/1999/xlink" width="512" height="512" x="0" y="0" viewBox="0 0 512 512.002" style="enable-background:new 0 0 512 512" xml:space="preserve"><g><path d="M489.5 217.5c-9.777 0-18.113 6.27-21.21 15H425.5v-8.75a7.5 7.5 0 1 0-15 0v36.563c0 37.402-12.54 72.62-35.309 99.164-31.8 37.058-71.894 65.238-119.191 83.773-42.285-16.57-78.922-40.926-108.906-72.398a7.5 7.5 0 1 0-10.864 10.343 306.438 306.438 0 0 0 33.27 30.125v56.973c-8.727 3.094-15 11.43-15 21.21 0 12.407 10.094 22.5 22.5 22.5s22.5-10.093 22.5-22.5c0-9.776-6.27-18.116-15-21.21v-45.984c20.586 14.164 43.07 26.02 67.32 35.414a11.567 11.567 0 0 0 8.355 0c50.169-19.43 92.696-49.196 126.403-88.48 15.594-18.177 26.828-39.997 33.11-63.743h25.351c3.098 8.73 11.434 15 21.211 15 12.406 0 22.5-10.094 22.5-22.5s-10.094-22.5-22.5-22.5c-9.777 0-18.113 6.273-21.21 15h-22.09a178.694 178.694 0 0 0 2.55-30.188V247.5h42.79c3.097 8.73 11.433 15 21.21 15 12.406 0 22.5-10.094 22.5-22.5s-10.094-22.5-22.5-22.5ZM177 497c-4.137 0-7.5-3.363-7.5-7.5 0-4.137 3.363-7.5 7.5-7.5 4.137 0 7.5 3.363 7.5 7.5 0 4.137-3.363 7.5-7.5 7.5Zm289.25-206.5c4.137 0 7.5 3.363 7.5 7.5 0 4.137-3.363 7.5-7.5 7.5-4.137 0-7.5-3.363-7.5-7.5 0-4.137 3.363-7.5 7.5-7.5Zm23.25-43c-4.137 0-7.5-3.363-7.5-7.5 0-4.137 3.363-7.5 7.5-7.5 4.137 0 7.5 3.363 7.5 7.5 0 4.137-3.363 7.5-7.5 7.5ZM101.5 260.313V123.875c27.512-6.504 56.094-18.625 85.008-36.059 42.863-25.84 96.12-25.84 138.984 0 12.867 7.754 25.664 14.454 38.332 20.079.14.066.281.132.43.187 15.656 6.926 31.113 12.215 46.246 15.793v67.79c0 4.144 3.355 7.5 7.5 7.5s7.5-3.356 7.5-7.5V121.12c0-5.363-3.695-10.078-8.79-11.21-13.772-3.063-27.882-7.665-42.21-13.735V43.71c8.73-3.098 15-11.434 15-21.211C389.5 10.094 379.406 0 367 0s-22.5 10.094-22.5 22.5c0 9.777 6.273 18.113 15 21.21v45.618c-8.691-4.262-17.453-9.047-26.262-14.355-47.64-28.723-106.836-28.72-154.472 0-28.563 17.215-56.649 28.972-83.477 34.937-5.094 1.133-8.789 5.848-8.789 11.211V166.5H43.71c-3.097-8.73-11.433-15-21.21-15C10.094 151.5 0 161.594 0 174s10.094 22.5 22.5 22.5c9.777 0 18.113-6.27 21.21-15H86.5v43H66.96c-3.097-8.73-11.433-15-21.21-15-12.406 0-22.5 10.094-22.5 22.5s10.094 22.5 22.5 22.5c9.777 0 18.113-6.27 21.21-15H86.5v20.813c0 35.945 10.383 69.66 30.02 97.496a7.494 7.494 0 0 0 6.136 3.175 7.472 7.472 0 0 0 4.317-1.37c3.382-2.391 4.191-7.071 1.804-10.454-17.843-25.293-27.277-56.015-27.277-88.848ZM367 15c4.137 0 7.5 3.363 7.5 7.5 0 4.137-3.363 7.5-7.5 7.5-4.137 0-7.5-3.363-7.5-7.5 0-4.137 3.363-7.5 7.5-7.5ZM22.5 181.5c-4.137 0-7.5-3.363-7.5-7.5 0-4.137 3.363-7.5 7.5-7.5 4.137 0 7.5 3.363 7.5 7.5 0 4.137-3.363 7.5-7.5 7.5Zm23.25 58c-4.137 0-7.5-3.363-7.5-7.5 0-4.137 3.363-7.5 7.5-7.5 4.137 0 7.5 3.363 7.5 7.5 0 4.137-3.363 7.5-7.5 7.5Zm0 0" style="stroke:none;fill-rule:nonzero;fill-opacity:1;" fill="#07C595" data-original="#000000" opacity="1"></path><path d="M173.492 129.152a7.502 7.502 0 0 0 3.399-10.047 7.505 7.505 0 0 0-10.051-3.398c-14.192 7.02-28.442 12.844-42.348 17.313a11.465 11.465 0 0 0-7.992 10.945v116.347c0 33.825 11.254 65.57 31.688 89.391 27.972 32.602 62.843 58.04 103.648 75.617 1.32.57 2.742.856 4.164.856 1.422 0 2.844-.285 4.168-.856 40.8-17.574 75.668-43.011 103.637-75.61 20.437-23.827 31.695-55.573 31.695-89.397V143.964c0-5.012-3.21-9.41-7.992-10.945-22.852-7.34-46.32-18.227-69.758-32.356A119.581 119.581 0 0 0 256 83.5c-21.77 0-43.121 5.934-61.75 17.164l-1.594.957a7.502 7.502 0 0 0-2.601 10.285 7.498 7.498 0 0 0 10.28 2.602c.556-.332 1.11-.664 1.661-.996A104.604 104.604 0 0 1 256 98.5c19.043 0 37.719 5.191 54.008 15.012 23.605 14.23 47.308 25.324 70.492 33v113.797c0 30.246-9.973 58.527-28.078 79.632-26.067 30.38-58.5 54.204-96.422 70.832-37.926-16.632-70.36-40.457-96.426-70.836-18.105-21.105-28.074-49.382-28.074-79.628V146.512c13.84-4.582 27.953-10.418 41.992-17.36Zm0 0" style="stroke:none;fill-rule:nonzero;fill-opacity:1;" fill="#07C595" data-original="#000000" opacity="1"></path><path d="M256 175.5c-20.676 0-37.5 16.82-37.5 37.5v12.5H216c-9.648 0-17.5 7.852-17.5 17.5v60c0 9.648 7.852 17.5 17.5 17.5h80c9.648 0 17.5-7.852 17.5-17.5v-60c0-9.648-7.852-17.5-17.5-17.5h-2.5V213c0-20.68-16.82-37.5-37.5-37.5ZM233.5 213c0-12.406 10.094-22.5 22.5-22.5s22.5 10.094 22.5 22.5v12.5h-45Zm65 30v60c0 1.379-1.121 2.5-2.5 2.5h-80a2.502 2.502 0 0 1-2.5-2.5v-60c0-1.379 1.121-2.5 2.5-2.5h80c1.379 0 2.5 1.121 2.5 2.5Zm0 0" style="stroke:none;fill-rule:nonzero;fill-opacity:1;" fill="#07C595" data-original="#000000" opacity="1"></path><path d="M256 243c-12.406 0-22.5 10.094-22.5 22.5 0 9.777 6.273 18.113 15 21.21v8.79a7.5 7.5 0 1 0 15 0v-8.79c8.73-3.097 15-11.433 15-21.21 0-12.406-10.094-22.5-22.5-22.5Zm0 30c-4.137 0-7.5-3.363-7.5-7.5 0-4.137 3.363-7.5 7.5-7.5 4.137 0 7.5 3.363 7.5 7.5 0 4.137-3.363 7.5-7.5 7.5Zm0 0" style="stroke:none;fill-rule:nonzero;fill-opacity:1;" fill="#07C595" data-original="#000000" opacity="1"></path></g></svg>