<svg xmlns="http://www.w3.org/2000/svg" xmlns:xlink="http://www.w3.org/1999/xlink" width="64.134" height="64.134" viewBox="0 0 64.134 64.134">
  <defs>
    <clipPath id="clip-path">
      <path id="Path_112" data-name="Path 112" d="M0-682.665H64.134v64.134H0Z" transform="translate(0 682.665)"/>
    </clipPath>
  </defs>
  <g id="svgexport-15_62_" data-name="svgexport-15 (62)" transform="translate(0 -0.002)">
    <path id="Path_87" data-name="Path 87" d="M-3.6-27.179-3.972-30" transform="translate(44.331 87.44)" fill="none" stroke="#32f8bd" stroke-linecap="round" stroke-linejoin="round" stroke-width="2"/>
    <path id="Path_88" data-name="Path 88" d="M-12.154,0l-1.26,9.52" transform="translate(36.817 50.739)" fill="none" stroke="#32f8bd" stroke-linecap="round" stroke-linejoin="round" stroke-width="2"/>
    <g id="Group_147" data-name="Group 147" transform="translate(0 0.002)" clip-path="url(#clip-path)">
      <path id="Path_89" data-name="Path 89" d="M-74,0a3.838,3.838,0,0,1-3.837,3.741A3.838,3.838,0,0,1-81.673.027" transform="translate(109.904 50.686)" fill="none" stroke="#32f8bd" stroke-linecap="round" stroke-linejoin="round" stroke-width="2"/>
      <path id="Path_90" data-name="Path 90" d="M-3.274-24.73l-.339-2.564" transform="translate(43.077 77.97)" fill="none" stroke="#32f8bd" stroke-linecap="round" stroke-linejoin="round" stroke-width="2"/>
      <path id="Path_91" data-name="Path 91" d="M-222.846,0h-23.106" transform="translate(266.466 60.365)" fill="none" stroke="#32f8bd" stroke-linecap="round" stroke-linejoin="round" stroke-width="2"/>
      <path id="Path_92" data-name="Path 92" d="M-156.442-367.918v-35.643a2.505,2.505,0,0,0-2.505-2.505h-13.716" transform="translate(219.637 409.836)" fill="none" stroke="#32f8bd" stroke-linecap="round" stroke-linejoin="round" stroke-width="2"/>
      <path id="Path_93" data-name="Path 93" d="M-402.891,0h-39.27a2.505,2.505,0,0,0-2.505,2.505V38.149" transform="translate(445.605 3.769)" fill="none" stroke="#32f8bd" stroke-linecap="round" stroke-linejoin="round" stroke-width="2"/>
      <path id="Path_94" data-name="Path 94" d="M-576.249-80.5h-57.245A2.505,2.505,0,0,1-636-83.006v-5.842h62.255v5.842A2.505,2.505,0,0,1-576.249-80.5Z" transform="translate(636.938 131.09)" fill="none" stroke="#32f8bd" stroke-linecap="round" stroke-linejoin="round" stroke-width="2"/>
      <path id="Path_95" data-name="Path 95" d="M-176.588-95.364h-15.965l-2.345-8.393,20.283-1.495Z" transform="translate(228.036 120.373)" fill="none" stroke="#32f8bd" stroke-linecap="round" stroke-linejoin="round" stroke-width="2"/>
      <path id="Path_96" data-name="Path 96" d="M-49.2-186.6h-3.474a1.627,1.627,0,0,1-1.628-1.627,1.627,1.627,0,0,1,1.628-1.627h16.764L-32.7-205.95h1.936" transform="translate(86.787 217.722)" fill="none" stroke="#32f8bd" stroke-linecap="round" stroke-linejoin="round" stroke-width="2"/>
      <path id="Path_97" data-name="Path 97" d="M-98.969,0H-109.23" transform="translate(147.175 31.12)" fill="none" stroke="#32f8bd" stroke-linecap="round" stroke-linejoin="round" stroke-width="2"/>
      <path id="Path_98" data-name="Path 98" d="M-34.618,0h-3.59" transform="translate(86.838 31.12)" fill="none" stroke="#32f8bd" stroke-linecap="round" stroke-linejoin="round" stroke-width="2"/>
      <path id="Path_99" data-name="Path 99" d="M-41.079-20.54a2.13,2.13,0,0,1-2.13,2.13,2.13,2.13,0,0,1-2.13-2.13,2.13,2.13,0,0,1,2.13-2.13A2.13,2.13,0,0,1-41.079-20.54Z" transform="translate(80.964 53.79)" fill="none" stroke="#32f8bd" stroke-linecap="round" stroke-linejoin="round" stroke-width="2"/>
      <path id="Path_100" data-name="Path 100" d="M-41.079-20.54a2.13,2.13,0,0,1-2.13,2.13,2.13,2.13,0,0,1-2.13-2.13,2.13,2.13,0,0,1,2.13-2.13A2.13,2.13,0,0,1-41.079-20.54Z" transform="translate(91.674 53.79)" fill="none" stroke="#32f8bd" stroke-linecap="round" stroke-linejoin="round" stroke-width="2"/>
      <path id="Path_101" data-name="Path 101" d="M0,0V2.631" transform="translate(38.504 19.191)" fill="none" stroke="#32f8bd" stroke-linecap="round" stroke-linejoin="round" stroke-width="2"/>
      <path id="Path_102" data-name="Path 102" d="M0,0V2.631" transform="translate(41.698 19.191)" fill="none" stroke="#32f8bd" stroke-linecap="round" stroke-linejoin="round" stroke-width="2"/>
      <path id="Path_103" data-name="Path 103" d="M0,0V2.631" transform="translate(44.892 19.191)" fill="none" stroke="#32f8bd" stroke-linecap="round" stroke-linejoin="round" stroke-width="2"/>
      <path id="Path_104" data-name="Path 104" d="M0,0V2.631" transform="translate(48.086 19.191)" fill="none" stroke="#32f8bd" stroke-linecap="round" stroke-linejoin="round" stroke-width="2"/>
      <path id="Path_105" data-name="Path 105" d="M0-19.153l2.112-1.986,2.112,1.986" transform="translate(10.997 31.853)" fill="none" stroke="#32f8bd" stroke-linecap="round" stroke-linejoin="round" stroke-width="2"/>
      <path id="Path_106" data-name="Path 106" d="M0,0V4.14" transform="translate(13.11 11.127)" fill="none" stroke="#32f8bd" stroke-linecap="round" stroke-linejoin="round" stroke-width="2"/>
      <path id="Path_107" data-name="Path 107" d="M0-19.153l2.112-1.986,2.112,1.986" transform="translate(18.597 31.853)" fill="none" stroke="#32f8bd" stroke-linecap="round" stroke-linejoin="round" stroke-width="2"/>
      <path id="Path_108" data-name="Path 108" d="M0,0V4.14" transform="translate(20.71 11.127)" fill="none" stroke="#32f8bd" stroke-linecap="round" stroke-linejoin="round" stroke-width="2"/>
      <path id="Path_109" data-name="Path 109" d="M-112.35-60.682h3.883a1.253,1.253,0,0,0,1.253-1.253v-3.787a1.253,1.253,0,0,0-1.253-1.253h-14.28A1.253,1.253,0,0,0-124-65.722v3.787a1.253,1.253,0,0,0,1.253,1.253h6.138" transform="translate(132.768 87.042)" fill="none" stroke="#32f8bd" stroke-linecap="round" stroke-linejoin="round" stroke-width="2"/>
      <path id="Path_110" data-name="Path 110" d="M0,0H6.454" transform="translate(8.768 31.495)" fill="none" stroke="#32f8bd" stroke-linecap="round" stroke-linejoin="round" stroke-width="2"/>
      <path id="Path_111" data-name="Path 111" d="M0,0H16.785" transform="translate(8.768 34.823)" fill="none" stroke="#32f8bd" stroke-linecap="round" stroke-linejoin="round" stroke-width="2"/>
    </g>
  </g>
</svg>
