<svg xmlns="http://www.w3.org/2000/svg" width="60" height="52.937" viewBox="0 0 60 52.937">
  <g id="_1" data-name="1" transform="translate(0 -3)">
    <path id="Path_67" data-name="Path 67" d="M23.673,41.509a.986.986,0,0,1-.641-.237l-6.41-5.458a.991.991,0,0,1,0-1.508l6.41-5.458a.99.99,0,1,1,1.284,1.508l-5.524,4.7,5.524,4.7a.991.991,0,0,1-.643,1.745Zm12.654,0a.991.991,0,0,1-.643-1.745l5.524-4.7-5.524-4.7a.991.991,0,0,1,1.284-1.508l6.41,5.458a.991.991,0,0,1,0,1.509l-6.41,5.458a.986.986,0,0,1-.641.237Zm-8.6,4.094a.991.991,0,0,1-.971-1.195l3.995-18.967a.991.991,0,0,1,1.939.408L28.7,44.817a.991.991,0,0,1-.968.787Z" fill="#32f8bd"/>
    <path id="Path_68" data-name="Path 68" d="M53.349,55.937H6.651A6.658,6.658,0,0,1,0,49.286V9.651A6.659,6.659,0,0,1,6.651,3h46.7A6.659,6.659,0,0,1,60,9.651V49.286A6.658,6.658,0,0,1,53.349,55.937ZM6.651,4.981a4.675,4.675,0,0,0-4.67,4.67V49.286a4.675,4.675,0,0,0,4.67,4.67h46.7a4.675,4.675,0,0,0,4.67-4.67V9.651a4.675,4.675,0,0,0-4.67-4.67Z" fill="#32f8bd"/>
    <path id="Path_69" data-name="Path 69" d="M59.009,18.862H.991a.991.991,0,0,1,0-1.981H59.009a.991.991,0,0,1,0,1.981Zm-42.085-4.74a3.135,3.135,0,1,1,3.135-3.135A3.139,3.139,0,0,1,16.925,14.122Zm0-4.288a1.154,1.154,0,1,0,1.154,1.154A1.155,1.155,0,0,0,16.925,9.833ZM7.293,14.091a3.135,3.135,0,1,1,3.135-3.135A3.138,3.138,0,0,1,7.293,14.091Zm0-4.288a1.154,1.154,0,1,0,1.153,1.154A1.155,1.155,0,0,0,7.293,9.8Zm19.263,4.349a3.134,3.134,0,1,1,3.135-3.135A3.138,3.138,0,0,1,26.556,14.152Zm0-4.288a1.154,1.154,0,1,0,1.154,1.154A1.155,1.155,0,0,0,26.556,9.863Z" fill="#32f8bd"/>
  </g>
</svg>
