<svg xmlns="http://www.w3.org/2000/svg" width="60" height="59.555" viewBox="0 0 60 59.555">
  <g id="_3" data-name="3" transform="translate(0 -0.223)">
    <path id="Path_122" data-name="Path 122" d="M17.158,11.995c5.9-2.661,10.257-6.1,12.606-9.932a.176.176,0,0,1,.305,0,23.877,23.877,0,0,0,8.281,7.68A50.339,50.339,0,0,0,51.5,15.073a.286.286,0,0,1,.215.256c.067.984.1,2.02.1,3.078A33.789,33.789,0,0,1,48.75,31.49a.877.877,0,0,0,.461,1.15.919.919,0,0,0,1.15-.461,35.508,35.508,0,0,0,3.206-13.772c0-1.1-.035-2.173-.1-3.2a2.037,2.037,0,0,0-1.519-1.832c-9.762-2.563-17.19-7.021-20.379-12.23a1.929,1.929,0,0,0-3.295,0C26.105,4.684,22.014,7.882,16.437,10.4a.876.876,0,0,0,.721,1.6Z" fill="#32f8bd"/>
    <path id="Path_123" data-name="Path 123" d="M38.854,35.931V28.858a3.041,3.041,0,0,0-2.778-3.026V24.489a6.159,6.159,0,0,0-12.319,0v1.343a3.041,3.041,0,0,0-2.778,3.026v7.074a3.041,3.041,0,0,0,3.038,3.038h11.8A3.041,3.041,0,0,0,38.854,35.931ZM29.917,20.082a4.412,4.412,0,0,1,4.407,4.407V25.82H25.51V24.489A4.412,4.412,0,0,1,29.917,20.082ZM22.733,35.931V28.858a1.287,1.287,0,0,1,1.285-1.285h11.8A1.287,1.287,0,0,1,37.1,28.858v7.073a1.287,1.287,0,0,1-1.285,1.285h-11.8A1.286,1.286,0,0,1,22.733,35.931Z" fill="#32f8bd"/>
    <path id="Path_124" data-name="Path 124" d="M29.85,30.178a1.8,1.8,0,0,0-.621,3.442V34.75a.383.383,0,0,0,.383.383h.709a.383.383,0,0,0,.383-.383V33.621a1.8,1.8,0,0,0-.855-3.442Z" fill="#32f8bd"/>
    <path id="Path_125" data-name="Path 125" d="M57.446,42.751a2.557,2.557,0,0,0-2.3,1.444H43.664q.772-1.141,1.508-2.3H51.15a1.568,1.568,0,0,0,1.115-.462l1.785-1.786H55.1a2.554,2.554,0,1,0-.1-1.753H53.978a1.568,1.568,0,0,0-1.115.462l-1.786,1.786H46.252c.8-1.34,1.574-2.715,2.3-4.117a.876.876,0,1,0-1.558-.8C41.5,45.884,32.823,55.248,30.3,57.864a.525.525,0,0,1-.756,0A114.074,114.074,0,0,1,17.1,42.431c-6.028-9.1-9.084-17.185-9.084-24.024,0-1.058.034-2.094.1-3.079a.286.286,0,0,1,.216-.256c1.632-.429,3.227-.916,4.74-1.448a.876.876,0,0,0-.582-1.653c-1.468.517-3.017.99-4.6,1.406A2.037,2.037,0,0,0,6.371,15.21c-.07,1.024-.1,2.1-.1,3.2,0,6.347,2.46,13.645,7.317,21.732H8.757L6.971,38.353a1.568,1.568,0,0,0-1.115-.462H5a2.554,2.554,0,1,0-.1,1.753h.883l1.786,1.786a1.567,1.567,0,0,0,1.115.462h5.982q.481.759.976,1.508.265.4.534.8H4.854a2.553,2.553,0,1,0,.172,1.753H17.392q.841,1.185,1.714,2.347H12.193a2.554,2.554,0,1,0,0,1.753H20.45q.859,1.1,1.743,2.175H18.4a1.568,1.568,0,0,0-1.115.462L15.5,54.47H14.465a2.554,2.554,0,1,0,0,1.753h1.109a1.568,1.568,0,0,0,1.116-.462l1.785-1.786h5.184c1.986,2.329,3.649,4.1,4.62,5.107a2.278,2.278,0,0,0,3.277,0c1.092-1.13,2.73-2.884,4.63-5.109l.048,0h5.126l1.786,1.786a1.567,1.567,0,0,0,1.115.462H45.37a2.554,2.554,0,1,0,0-1.753H44.333l-1.786-1.786a1.568,1.568,0,0,0-1.115-.462h-3.78q.885-1.077,1.743-2.175h8.279a2.554,2.554,0,1,0,0-1.753H40.738q.872-1.162,1.712-2.347H54.974a2.554,2.554,0,1,0,2.472-3.2Zm0-4.915a.8.8,0,1,1-.8.8A.8.8,0,0,1,57.446,37.836Zm-54.892,1.6a.8.8,0,1,1,.8-.8A.8.8,0,0,1,2.554,39.438Zm0,6.668a.8.8,0,1,1,.566-.235A.8.8,0,0,1,2.554,46.106Zm7.24,3.867a.8.8,0,1,1,.8-.8A.8.8,0,0,1,9.794,49.973Zm2.271,6.175a.8.8,0,1,1,.8-.8A.8.8,0,0,1,12.066,56.148Zm35.7-1.6a.8.8,0,1,1-.8.8A.8.8,0,0,1,47.769,54.545Zm2.3-6.175a.8.8,0,1,1-.8.8A.8.8,0,0,1,50.073,48.37Zm7.373-2.264a.8.8,0,1,1,.8-.8A.8.8,0,0,1,57.446,46.106Z" fill="#32f8bd"/>
    <path id="Path_126" data-name="Path 126" d="M31.409,52.077a1.678,1.678,0,1,0-2.192.907A1.678,1.678,0,0,0,31.409,52.077Z" fill="#32f8bd"/>
    <path id="Path_127" data-name="Path 127" d="M30.109,10.458a1.678,1.678,0,1,0-1.925-1.386A1.678,1.678,0,0,0,30.109,10.458Z" fill="#32f8bd"/>
    <path id="Path_128" data-name="Path 128" d="M12.428,17.083a1.678,1.678,0,1,0,1.678,1.678A1.677,1.677,0,0,0,12.428,17.083Zm34.978,0a1.678,1.678,0,1,0,1.677,1.678A1.678,1.678,0,0,0,47.406,17.083Z" fill="#32f8bd"/>
  </g>
</svg>
