<svg xmlns="http://www.w3.org/2000/svg" width="64.224" height="62.84" viewBox="0 0 64.224 62.84">
  <g id="_2" data-name="2" transform="translate(0 -1)">
    <path id="Path_117" data-name="Path 117" d="M25.8,33.04a.716.716,0,0,0-.714.714V47.312h-4.21a.716.716,0,0,0-.714.714v7.222a3.211,3.211,0,1,0,1.427,0V48.739H25.8a.716.716,0,0,0,.714-.714V33.754A.716.716,0,0,0,25.8,33.04Zm-3.14,25.333a1.784,1.784,0,1,1-.523-1.261A1.784,1.784,0,0,1,22.662,58.373Z" transform="translate(1.244 2.256)" fill="#32f8bd"/>
    <path id="Path_118" data-name="Path 118" d="M12.845,55.247V44.458h9.277a.716.716,0,0,0,.714-.714v-9.99a.714.714,0,1,0-1.427,0V43.03H6.337a3.211,3.211,0,1,0,0,1.427h5.081v10.79a3.211,3.211,0,1,0,1.427,0ZM3.211,45.528a1.784,1.784,0,1,1,1.261-.522A1.784,1.784,0,0,1,3.211,45.528Zm8.92,14.629a1.784,1.784,0,1,1,1.261-.523A1.784,1.784,0,0,1,12.131,60.157Z" transform="translate(0 2.256)" fill="#32f8bd"/>
    <path id="Path_119" data-name="Path 119" d="M60.966,42.788a3.213,3.213,0,0,0-3.126,2.5H50.619V41h2.754a10.682,10.682,0,0,0,4.374-20.48C57.669,10.291,49.156,1,39.451,1A18.4,18.4,0,0,0,23.938,9.528a9.422,9.422,0,0,0-5.894-2.062c-5.43,0-9.491,5.723-9.527,10.761a11.8,11.8,0,0,0-7.85,11A11.933,11.933,0,0,0,11.856,40.962a.618.618,0,0,0,.228.043h5.024a.714.714,0,1,0,0-1.427H12.8A10.54,10.54,0,0,1,2.094,29.23,10.54,10.54,0,0,1,12.8,18.883a.714.714,0,1,0,0-1.427,12.363,12.363,0,0,0-2.833.335c.257-5.059,4.374-8.9,8.078-8.9a8,8,0,0,1,5.666,2.333.711.711,0,0,0,1.006,0,.7.7,0,0,0,.193-.571A16.979,16.979,0,0,1,39.444,2.434c8.784,0,16.506,8.313,16.862,17.583a10.8,10.8,0,0,0-2.94-.414.714.714,0,0,0,0,1.427,9.277,9.277,0,1,1,0,18.554H47.044a.714.714,0,1,0,0,1.427h2.141v5a.716.716,0,0,0,.714.714h7.935A3.209,3.209,0,1,0,60.959,42.8Zm0,5a1.784,1.784,0,1,1,1.261-.523A1.784,1.784,0,0,1,60.966,47.784Z" transform="translate(0.047)" fill="#32f8bd"/>
    <path id="Path_120" data-name="Path 120" d="M30.925,55.247V33.754a.714.714,0,0,0-1.427,0V55.247a3.211,3.211,0,1,0,1.427,0Zm-.714,4.91a1.784,1.784,0,1,1,1.261-.523A1.784,1.784,0,0,1,30.211,60.157Zm10.7-4.91V50.88a.716.716,0,0,0-.357-.621L35.92,47.612V33.754a.714.714,0,1,0-1.427,0V48.026a.716.716,0,0,0,.357.621l4.638,2.648v3.953a3.211,3.211,0,1,0,1.427,0Zm-.714,4.91a1.784,1.784,0,1,1,1.261-.523A1.784,1.784,0,0,1,40.2,60.157Z" transform="translate(1.901 2.256)" fill="#32f8bd"/>
    <path id="Path_121" data-name="Path 121" d="M51.492,56.608V52.091a.722.722,0,0,0-.4-.642L41.5,46.8V35.115a.714.714,0,1,0-1.427,0V47.246a.722.722,0,0,0,.4.642l9.591,4.653v4.068a3.211,3.211,0,1,0,1.427,0Zm-.714,4.909A1.784,1.784,0,1,1,52.04,61,1.784,1.784,0,0,1,50.779,61.518ZM20.807,20.129a2.147,2.147,0,0,0,2.141-2.141V15.848a2.141,2.141,0,0,0-4.282,0v2.141A2.147,2.147,0,0,0,20.807,20.129Zm-.714-4.282a.714.714,0,1,1,1.427,0v2.141a.714.714,0,0,1-1.427,0Zm-1.427,9.99a2.141,2.141,0,0,0,4.282,0V23.7a2.141,2.141,0,0,0-4.282,0ZM20.094,23.7a.714.714,0,1,1,1.427,0v2.141a.714.714,0,0,1-1.427,0Zm8.563,0v2.141a2.141,2.141,0,0,0,4.282,0V23.7a2.141,2.141,0,0,0-4.282,0Zm2.854,0v2.141a.714.714,0,1,1-1.427,0V23.7a.714.714,0,1,1,1.427,0Zm7.136,0v2.141a2.141,2.141,0,1,0,4.282,0V23.7a2.141,2.141,0,0,0-4.282,0Zm2.854,0v2.141a.714.714,0,1,1-1.427,0V23.7a.714.714,0,1,1,1.427,0Zm-13.558-9.99A2.147,2.147,0,0,0,25.8,15.848v2.141a2.141,2.141,0,0,0,4.282,0V15.848A2.147,2.147,0,0,0,27.943,13.707Zm.714,4.282a.714.714,0,0,1-1.427,0V15.848a.714.714,0,1,1,1.427,0Zm9.99-4.282a2.147,2.147,0,0,0-2.141,2.141v2.141a2.141,2.141,0,1,0,4.282,0V15.848A2.147,2.147,0,0,0,38.647,13.707Zm.714,4.282a.714.714,0,0,1-1.427,0V15.848a.714.714,0,1,1,1.427,0ZM24.375,20.158a.716.716,0,0,0,.714-.714V14.42a.714.714,0,0,0-1.427,0v5.024A.716.716,0,0,0,24.375,20.158Zm-.714,7.107a.714.714,0,1,0,1.427,0V22.241a.714.714,0,1,0-1.427,0Zm4.282.029V22.27a.714.714,0,1,0-1.427,0v5.024a.714.714,0,1,0,1.427,0Zm7.136-5.052a.714.714,0,1,0-1.427,0v5.024a.714.714,0,1,0,1.427,0Zm1.427,5.052a.714.714,0,1,0,1.427,0V22.27a.714.714,0,1,0-1.427,0Zm-4.282-7.85V14.42a.714.714,0,0,0-1.427,0v5.024a.714.714,0,0,0,1.427,0Zm10.7,0V14.42a.714.714,0,0,0-1.427,0v5.024a.714.714,0,0,0,1.427,0Zm-8.563.714a.716.716,0,0,0,.714-.714V14.42a.714.714,0,0,0-1.427,0v5.024A.716.716,0,0,0,34.366,20.158Z" transform="translate(1.314 0.895)" fill="#32f8bd"/>
  </g>
</svg>
