<svg id="_6" data-name="6" xmlns="http://www.w3.org/2000/svg" width="54.074" height="54.074" viewBox="0 0 54.074 54.074">
  <path id="Path_134" data-name="Path 134" d="M19.964,11.178a1.754,1.754,0,0,0-.888-1.534l-5.6-3.236a1.77,1.77,0,0,0-2.658,1.534v6.472a1.776,1.776,0,0,0,1.769,1.776,1.773,1.773,0,0,0,.889-.241l5.6-3.236A1.755,1.755,0,0,0,19.964,11.178Zm-1.44.579-5.6,3.236a.666.666,0,0,1-1-.579V7.942a.656.656,0,0,1,.333-.58.684.684,0,0,1,.336-.091.659.659,0,0,1,.333.093l5.6,3.236a.667.667,0,0,1,0,1.158Zm31.646,4.267a1.95,1.95,0,0,0-.1-.179,1.934,1.934,0,0,0,.719-2.741,1.934,1.934,0,0,0,.734-2.821,1.935,1.935,0,0,0-.965-3.613h-5a2.618,2.618,0,0,1-.232-2.315,4.47,4.47,0,0,0,.2-1.912A3.116,3.116,0,0,0,44.344.325a1.67,1.67,0,0,0-1.367-.28c-.39.092-1.3.49-1.365,2.188a6.006,6.006,0,0,1-1.461,3.223c-.168.161-.334.3-.51.457A7.986,7.986,0,0,0,38.467,7.1a1.886,1.886,0,0,0-1.217-.445H35.557a1.9,1.9,0,0,0-1.895,1.895v7.311H30.776V4.038A4.042,4.042,0,0,0,26.738,0H4.038A4.042,4.042,0,0,0,0,4.038v14.28a4.042,4.042,0,0,0,4.038,4.038H17.115v9.81a11.626,11.626,0,1,0,5.855,7.6H35.843l8.751,7.2a.552.552,0,0,0,.9-.426V39.765h3.379a5.2,5.2,0,0,0,5.2-5.2V21.058A5.211,5.211,0,0,0,50.171,16.024ZM40.364,6.748c.178-.154.362-.314.55-.493a7.035,7.035,0,0,0,1.8-3.98c.011-.313.085-1.053.516-1.155a.58.58,0,0,1,.483.111,2.035,2.035,0,0,1,.712,1.348,3.44,3.44,0,0,1-.167,1.482,3.511,3.511,0,0,0-.074,2.148.552.552,0,0,0-.872.662,1.679,1.679,0,0,0,1.484.9h5.76a.832.832,0,1,1,0,1.663h-.634a.552.552,0,1,0,0,1.1.832.832,0,1,1,0,1.663h-.77a.552.552,0,1,0,0,1.1.832.832,0,1,1,0,1.663h-.7a.552.552,0,0,0,0,1.1.832.832,0,0,1,0,1.663H42c-1.378,0-2.331-.071-2.854-.963V8.548a1.884,1.884,0,0,0-.051-.429A6.1,6.1,0,0,1,40.364,6.748Zm-5.6,1.8a.792.792,0,0,1,.791-.791H37.25a.792.792,0,0,1,.791.791v8.4a.792.792,0,0,1-.791.791H35.557a.791.791,0,0,1-.791-.791ZM4.038,21.252A2.938,2.938,0,0,1,1.1,18.318V4.038A2.938,2.938,0,0,1,4.038,1.1h22.7a2.938,2.938,0,0,1,2.934,2.934V15.859H22.313a5.2,5.2,0,0,0-5.2,5.2v.194Zm.615,29.061a7.618,7.618,0,0,1,6.987-5.048,7.617,7.617,0,0,1,6.987,5.048,10.515,10.515,0,0,1-13.975,0Zm14.828-.848a8.775,8.775,0,0,0-2.717-3.517,8.549,8.549,0,0,0-5.115-1.786h-.017a8.55,8.55,0,0,0-5.115,1.786A8.774,8.774,0,0,0,3.8,49.465a10.536,10.536,0,1,1,15.681,0Zm33.491-14.9a4.1,4.1,0,0,1-4.1,4.095H44.945a.552.552,0,0,0-.552.552v6.155l-8-6.581a.551.551,0,0,0-.35-.126H22.651a11.7,11.7,0,0,0-4.433-5.823V21.058a4.1,4.1,0,0,1,4.1-4.1h11.35a1.9,1.9,0,0,0,1.894,1.881H37.25a1.892,1.892,0,0,0,1.533-.786A4.733,4.733,0,0,0,42,18.843h6.451a1.937,1.937,0,0,0,1.9-1.6,4.107,4.107,0,0,1,2.615,3.818ZM36.593,32.925a.552.552,0,0,1-.552.552H24.314a.552.552,0,1,1,0-1.1H36.041a.551.551,0,0,1,.552.552Zm10.835-5.113a.552.552,0,0,1-.552.552H24.314a.552.552,0,0,1,0-1.1H46.876a.552.552,0,0,1,.552.552Zm0-5.113a.552.552,0,0,1-.552.552H24.314a.552.552,0,0,1,0-1.1H46.876a.552.552,0,0,1,.552.552ZM11.64,34.485a4.274,4.274,0,1,0,4.274,4.274A4.279,4.279,0,0,0,11.64,34.485Zm0,7.444a3.17,3.17,0,1,1,3.17-3.17A3.174,3.174,0,0,1,11.64,41.929Z" fill="#32f8bd"/>
</svg>
