<svg xmlns="http://www.w3.org/2000/svg" width="57.576" height="57.576" viewBox="0 0 57.576 57.576">
  <g id="svgexport-15_53_" data-name="svgexport-15 (53)" transform="translate(-1 -1)">
    <path id="Path_1373" data-name="Path 1373" d="M26.233,4.919H20.475a.96.96,0,0,1,0-1.919h5.758a.96.96,0,1,1,0,1.919Zm7.677,51.819H12.8A4.8,4.8,0,0,1,8,51.94V19.313a.96.96,0,1,1,1.919,0V51.94A2.882,2.882,0,0,0,12.8,54.819H33.909a2.882,2.882,0,0,0,2.879-2.879V19.313a.96.96,0,1,1,1.919,0V51.94A4.8,4.8,0,0,1,33.909,56.738Z" transform="translate(6.434 1.838)" fill="#32f8bd"/>
    <path id="Path_1374" data-name="Path 1374" d="M40.505,27.869a.96.96,0,0,1-.96-.96V5.8a2.882,2.882,0,0,0-2.879-2.879H15.556A2.882,2.882,0,0,0,12.677,5.8V26.909a.96.96,0,1,1-1.919,0V5.8a4.8,4.8,0,0,1,4.8-4.8H36.667a4.8,4.8,0,0,1,4.8,4.8V26.909A.96.96,0,0,1,40.505,27.869Zm5.758-17.177a.883.883,0,0,1-.96-.864V9.636a.96.96,0,0,1,1.919,0A1.047,1.047,0,0,1,46.263,10.692Zm0,3.838a.883.883,0,0,1-.96-.864v-.192a.96.96,0,0,1,1.919,0A1.047,1.047,0,0,1,46.263,14.53Zm0,3.838a.883.883,0,0,1-.96-.864v-.192a.96.96,0,1,1,1.919,0A1.047,1.047,0,0,1,46.263,18.369ZM5.96,43.127A.883.883,0,0,1,5,42.263v-.192a.96.96,0,0,1,1.919,0,1.047,1.047,0,0,1-.96,1.056Zm0,3.838A.883.883,0,0,1,5,46.1V45.91a.96.96,0,0,1,1.919,0,1.047,1.047,0,0,1-.96,1.056Zm0,3.838A.883.883,0,0,1,5,49.94v-.192a.96.96,0,1,1,1.919,0A1.047,1.047,0,0,1,5.96,50.8Z" transform="translate(3.677)" fill="#32f8bd"/>
    <path id="Path_1375" data-name="Path 1375" d="M26.074,39.869a.96.96,0,0,1-.938-1.161l.633-2.936a.956.956,0,0,1,.712-.729,9.2,9.2,0,0,0,2.624-1.1.96.96,0,0,1,1.015.01l1.9,1.215L33.2,33.985,31.981,32.1a.962.962,0,0,1-.013-1.019,9.135,9.135,0,0,0,1.094-2.624.963.963,0,0,1,.725-.714l2.188-.486V25.613l-2.186-.486a.963.963,0,0,1-.725-.714,9.189,9.189,0,0,0-1.094-2.624.954.954,0,0,1,.012-1.017l1.217-1.9L32.023,17.7l-1.9,1.217a.956.956,0,0,1-1.015.01,9.241,9.241,0,0,0-2.624-1.1.956.956,0,0,1-.712-.729L25.3,14.919H24.46a.96.96,0,0,1,0-1.919h1.612a.96.96,0,0,1,.937.758l.512,2.366a11.105,11.105,0,0,1,2.055.86l2.061-1.319a.96.96,0,0,1,1.2.131L35.1,18.061a.96.96,0,0,1,.129,1.2L33.91,21.318a11.139,11.139,0,0,1,.86,2.059l2.37.526a.962.962,0,0,1,.754.938v3.186a.96.96,0,0,1-.752.937l-2.37.526a11.068,11.068,0,0,1-.86,2.057l1.317,2.042a.956.956,0,0,1-.125,1.2l-2.267,2.284a.962.962,0,0,1-1.2.132l-2.061-1.319a11.16,11.16,0,0,1-2.055.86l-.512,2.366A.962.962,0,0,1,26.074,39.869Z" transform="translate(20.682 11.031)" fill="#32f8bd"/>
    <path id="Path_1376" data-name="Path 1376" d="M44.138,34.667a.96.96,0,0,1-.534-1.756,3.842,3.842,0,0,0-2.9-6.953.96.96,0,0,1-.386-1.881A5.759,5.759,0,0,1,44.67,34.5.958.958,0,0,1,44.138,34.667ZM10.761,20.124A5.756,5.756,0,0,1,7.571,9.572a.96.96,0,0,1,1.063,1.6,3.842,3.842,0,0,0,2.879,6.961.959.959,0,1,1,.378,1.881A5.631,5.631,0,0,1,10.761,20.124Z" transform="translate(3.674 7.745)" fill="#32f8bd"/>
    <path id="Path_1377" data-name="Path 1377" d="M14.434,31.882H12.822a.96.96,0,0,1-.937-.758l-.512-2.366a11.1,11.1,0,0,1-2.055-.86L7.257,29.217a.96.96,0,0,1-1.2-.131L3.794,26.821a.96.96,0,0,1-.129-1.2l1.318-2.061a11.139,11.139,0,0,1-.86-2.059l-2.37-.526A.962.962,0,0,1,1,20.041V16.855a.96.96,0,0,1,.752-.937l2.37-.526a11.068,11.068,0,0,1,.86-2.057L3.668,11.291a.956.956,0,0,1,.125-1.2L6.059,7.812a.956.956,0,0,1,1.2-.132L9.318,9a11.16,11.16,0,0,1,2.055-.86l.512-2.366a.96.96,0,1,1,1.875.4l-.633,2.936a.956.956,0,0,1-.712.729,9.23,9.23,0,0,0-2.625,1.1.96.96,0,0,1-1.015-.01l-1.9-1.215L5.7,10.9l1.215,1.885A.954.954,0,0,1,6.925,13.8a9.135,9.135,0,0,0-1.094,2.624.963.963,0,0,1-.725.714l-2.186.484v1.645l2.186.486a.963.963,0,0,1,.725.714,9.19,9.19,0,0,0,1.094,2.624.954.954,0,0,1-.012,1.017L5.7,26.01l1.175,1.175,1.9-1.217a.963.963,0,0,1,1.015-.01,9.241,9.241,0,0,0,2.624,1.1.956.956,0,0,1,.712.729l.472,2.18h.839a.96.96,0,1,1,0,1.919Zm14.394-.96a.958.958,0,0,1-.931-1.192l1.919-7.677a.959.959,0,1,1,1.862.464L29.759,30.2a.956.956,0,0,1-.931.727Zm5.758,0a.96.96,0,0,1-.679-1.637l3.161-3.161-3.159-3.159a.96.96,0,1,1,1.357-1.357L39.1,25.447a.96.96,0,0,1,0,1.357l-3.838,3.838a.963.963,0,0,1-.679.28Zm-9.6,0a.964.964,0,0,1-.679-.28L20.472,26.8a.96.96,0,0,1,0-1.357l3.838-3.838a.96.96,0,1,1,1.357,1.357l-3.159,3.159,3.159,3.159a.96.96,0,0,1-.677,1.639Z" transform="translate(0 3.663)" fill="#32f8bd"/>
  </g>
</svg>
